<svg class="border shadow-md" viewBox="0 0 743.6 743.6" xmlns="http://www.w3.org/2000/svg" preserveAspectRatio="none" style="width: 743.6px; height: 743.6px;"><rect class="bg" id="bg" x="0" y="0" width="743.6" height="743.6" fill="#e7cdb6"></rect><g transform="translate(335.85333333333335 553.8533333333334)" opacity="0.21"><path d="M235,196.5Q204,244,146.5,248.5Q89,253,65,201Q41,149,65.5,98.5Q90,48,142,59Q194,70,230,109.5Q266,149,235,196.5Z" fill="#E8E9E9" stroke="none" stroke-width="10" opacity="0.21"></path></g><g transform="translate(201.85333333333335 -64.14666666666666)" opacity="0.21"><path d="M217.5,189.5Q196,230,146.5,234Q97,238,65,193.5Q33,149,65,104.5Q97,60,158.5,43Q220,26,229.5,87.5Q239,149,217.5,189.5Z" fill="#DEDEDE" stroke="none" stroke-width="10" opacity="0.21"></path></g><g transform="translate(94.85333333333334 541.8533333333334)" opacity="0.21"><path d="M239.5,196.5Q204,244,147,247Q90,250,50,199.5Q10,149,44.5,89Q79,29,144.5,36Q210,43,242.5,96Q275,149,239.5,196.5Z" fill="#E8E9E9" stroke="none" stroke-width="10" opacity="0.21"></path></g><g transform="translate(193.85333333333335 -6.146666666666661)" opacity="0.21"><path d="M219,192.5Q199,236,138.5,253.5Q78,271,43,210Q8,149,52,103.5Q96,58,155,46.5Q214,35,226.5,92Q239,149,219,192.5Z" fill="#FFFFFF" stroke="none" stroke-width="10" opacity="0.21"></path></g><g transform="translate(24.85333333333334 249.85333333333335)" opacity="0.21"><path d="M231,197.5Q205,246,142.5,257Q80,268,51.5,208.5Q23,149,51,88Q79,27,151,24Q223,21,240,85Q257,149,231,197.5Z" fill="#E8E9E9" stroke="none" stroke-width="10" opacity="0.21"></path></g><g transform="translate(-16.14666666666666 210.85333333333335)" opacity="0.21"><path d="M231.5,208.5Q217,268,154,258.5Q91,249,72,199Q53,149,68,92Q83,35,150.5,31.5Q218,28,232,88.5Q246,149,231.5,208.5Z" fill="#DEDEDE" stroke="none" stroke-width="10" opacity="0.21"></path></g><g transform="translate(48.85333333333334 585.8533333333334)" opacity="0.21"><path d="M235,202Q210,255,151,251Q92,247,60,198Q28,149,62,103.5Q96,58,156.5,44.5Q217,31,238.5,90Q260,149,235,202Z" fill="#E8E9E9" stroke="none" stroke-width="10" opacity="0.21"></path></g><g transform="translate(602.8533333333334 68.85333333333334)" opacity="0.21"><path d="M239,209.5Q219,270,151.5,265.5Q84,261,46.5,205Q9,149,43.5,87.5Q78,26,136,48Q194,70,226.5,109.5Q259,149,239,209.5Z" fill="#FFFFFF" stroke="none" stroke-width="10" opacity="0.21"></path></g><g transform="translate(313.85333333333335 -16.14666666666666)" opacity="0.21"><path d="M224.5,187.5Q194,226,146,231.5Q98,237,49,193Q0,149,40.5,90.5Q81,32,139,48.5Q197,65,226,107Q255,149,224.5,187.5Z" fill="#E8E9E9" stroke="none" stroke-width="10" opacity="0.21"></path></g><g transform="translate(425.6666666666667 260.6666666666667)" opacity="0.21"><path d="M249,200.5Q208,250,147.5,255.5Q87,261,57,206Q27,151,59.5,100Q92,49,155.5,40Q219,31,254.5,91Q290,151,249,200.5Z" fill="#DEDEDE" stroke="none" stroke-width="10" opacity="0.21"></path></g><g transform="translate(59.85333333333334 241.85333333333335)" opacity="0.21"><path d="M237.5,210Q219,271,147,273.5Q75,276,64,212.5Q53,149,76,106Q99,63,157.5,47.5Q216,32,236,90.5Q256,149,237.5,210Z" fill="#E8E9E9" stroke="none" stroke-width="10" opacity="0.21"></path></g><g transform="translate(253.33333333333331 -92.66666666666667)" opacity="0.21"><path d="M300.5,232Q240,283,175.5,292.5Q111,302,76.5,241.5Q42,181,79,124.5Q116,68,192,49.5Q268,31,314.5,106Q361,181,300.5,232Z" fill="#FFFFFF" stroke="none" stroke-width="10" opacity="0.21"></path></g><g transform="translate(182.85333333333335 526.8533333333334)" opacity="0.21"><path d="M227.5,198.5Q206,248,154,239Q102,230,72,189.5Q42,149,67.5,101Q93,53,154,43Q215,33,232,91Q249,149,227.5,198.5Z" fill="#E8E9E9" stroke="none" stroke-width="10" opacity="0.21"></path></g><g transform="translate(44.85333333333334 536.8533333333334)" opacity="0.21"><path d="M238.5,205.5Q214,262,145.5,267.5Q77,273,68,211Q59,149,69.5,89Q80,29,139,46Q198,63,230.5,106Q263,149,238.5,205.5Z" fill="#DEDEDE" stroke="none" stroke-width="10" opacity="0.21"></path></g><g transform="translate(74.85333333333334 277.85333333333335)" opacity="0.21"><path d="M235,203.5Q212,258,143.5,267Q75,276,51,212.5Q27,149,55.5,93Q84,37,145,43.5Q206,50,232,99.5Q258,149,235,203.5Z" fill="#E8E9E9" stroke="none" stroke-width="10" opacity="0.21"></path></g><g transform="translate(358.85333333333335 26.85333333333334)" opacity="0.21"><path d="M241.5,199.5Q207,250,154,241Q101,232,54,190.5Q7,149,46,93.5Q85,38,140.5,52.5Q196,67,236,108Q276,149,241.5,199.5Z" fill="#FFFFFF" stroke="none" stroke-width="10" opacity="0.21"></path></g><g transform="translate(46.85333333333334 -57.14666666666666)" opacity="0.21"><path d="M239,187.5Q193,226,146.5,229.5Q100,233,58.5,191Q17,149,52.5,96Q88,43,151,39Q214,35,249.5,92Q285,149,239,187.5Z" fill="#E8E9E9" stroke="none" stroke-width="10" opacity="0.21"></path></g><g transform="translate(611 12)" opacity="0.21"><path d="M267.5,223.5Q233,285,173,266Q113,247,63,204.5Q13,162,55.5,106.5Q98,51,154.5,64.5Q211,78,256.5,120Q302,162,267.5,223.5Z" fill="#DEDEDE" stroke="none" stroke-width="10" opacity="0.21"></path></g><g transform="translate(52.85333333333334 604.8533333333334)" opacity="0.21"><path d="M256.5,211Q221,273,148,274.5Q75,276,39.5,212.5Q4,149,49,101Q94,53,154.5,43.5Q215,34,253.5,91.5Q292,149,256.5,211Z" fill="#E8E9E9" stroke="none" stroke-width="10" opacity="0.21"></path></g><g transform="translate(-6.146666666666661 30.85333333333334)" opacity="0.21"><path d="M220,195Q202,241,151,237.5Q100,234,63,191.5Q26,149,51,86Q76,23,138.5,41Q201,59,219.5,104Q238,149,220,195Z" fill="#FFFFFF" stroke="none" stroke-width="10" opacity="0.21"></path></g><g transform="translate(614 143)" opacity="0.21"><path d="M277.5,223.5Q233,285,158,292Q83,299,65.5,230.5Q48,162,76.5,112.5Q105,63,161,65Q217,67,269.5,114.5Q322,162,277.5,223.5Z" fill="#E8E9E9" stroke="none" stroke-width="10" opacity="0.21"></path></g><g transform="translate(-70.14666666666666 61.85333333333334)" opacity="0.21"><path d="M239,187.5Q193,226,146.5,229.5Q100,233,58.5,191Q17,149,52.5,96Q88,43,151,39Q214,35,249.5,92Q285,149,239,187.5Z" fill="#DEDEDE" stroke="none" stroke-width="10" opacity="0.21"></path></g><g transform="translate(-60.14666666666666 47.85333333333334)" opacity="0.21"><path d="M221,195.5Q202,242,144.5,249Q87,256,48.5,202.5Q10,149,49.5,97Q89,45,142,56.5Q195,68,217.5,108.5Q240,149,221,195.5Z" fill="#E8E9E9" stroke="none" stroke-width="10" opacity="0.21"></path></g><g transform="translate(314.85333333333335 514.8533333333334)" opacity="0.21"><path d="M242,204.5Q213,260,144.5,267Q76,274,63,211.5Q50,149,66.5,92Q83,35,152,29Q221,23,246,86Q271,149,242,204.5Z" fill="#FFFFFF" stroke="none" stroke-width="10" opacity="0.21"></path></g><g transform="translate(489.85333333333335 -23.14666666666666)" opacity="0.21"><path d="M228.5,205.5Q214,262,159,244Q104,226,76.5,187.5Q49,149,72.5,103Q96,57,153.5,49Q211,41,227,95Q243,149,228.5,205.5Z" fill="#E8E9E9" stroke="none" stroke-width="10" opacity="0.21"></path></g><g transform="translate(301.6666666666667 -102.33333333333333)" opacity="0.21"><path d="M269,208.5Q216,256,156,264.5Q96,273,49.5,217Q3,161,47,100.5Q91,40,156,48.5Q221,57,271.5,109Q322,161,269,208.5Z" fill="#DEDEDE" stroke="none" stroke-width="10" opacity="0.21"></path></g><g transform="translate(390.85333333333335 61.85333333333334)" opacity="0.21"><path d="M234.5,188Q194,227,141.5,239.5Q89,252,51.5,200.5Q14,149,58.5,109.5Q103,70,157.5,54.5Q212,39,243.5,94Q275,149,234.5,188Z" fill="#E8E9E9" stroke="none" stroke-width="10" opacity="0.21"></path></g><g transform="translate(519.8533333333334 158.85333333333335)" opacity="0.21"><path d="M232.5,206Q214,263,145.5,268.5Q77,274,61,211.5Q45,149,66,95Q87,41,150.5,38.5Q214,36,232.5,92.5Q251,149,232.5,206Z" fill="#FFFFFF" stroke="none" stroke-width="10" opacity="0.21"></path></g><g transform="translate(50.85333333333334 -85.14666666666666)" opacity="0.21"><path d="M246.5,210.5Q220,272,152,267Q84,262,49,205.5Q14,149,56,105.5Q98,62,149.5,60.5Q201,59,237,104Q273,149,246.5,210.5Z" fill="#E8E9E9" stroke="none" stroke-width="10" opacity="0.21"></path></g><g transform="translate(87.85333333333334 -87.14666666666666)" opacity="0.21"><path d="M254,209Q218,269,152,263Q86,257,56,203Q26,149,55.5,94Q85,39,146.5,42Q208,45,249,97Q290,149,254,209Z" fill="#DEDEDE" stroke="none" stroke-width="10" opacity="0.21"></path></g><g transform="translate(110.85333333333334 447.85333333333335)" opacity="0.21"><path d="M257,208Q217,267,155,256.5Q93,246,75.5,197.5Q58,149,75.5,100.5Q93,52,152.5,45.5Q212,39,254.5,94Q297,149,257,208Z" fill="#E8E9E9" stroke="none" stroke-width="10" opacity="0.21"></path></g><g transform="translate(344.85333333333335 285.85333333333335)" opacity="0.21"><path d="M243,195.5Q203,242,147.5,245Q92,248,74.5,198.5Q57,149,78,106Q99,63,160,43Q221,23,252,86Q283,149,243,195.5Z" fill="#FFFFFF" stroke="none" stroke-width="10" opacity="0.21"></path></g><g transform="translate(-55.14666666666666 -0.14666666666666117)" opacity="0.21"><path d="M231.5,194Q201,239,151,235.5Q101,232,74,190.5Q47,149,66,93.5Q85,38,147,41Q209,44,235.5,96.5Q262,149,231.5,194Z" fill="#E8E9E9" stroke="none" stroke-width="10" opacity="0.21"></path></g><g transform="translate(245.85333333333335 364.85333333333335)" opacity="0.21"><path d="M230.5,195Q202,241,141,254Q80,267,51,208Q22,149,52.5,92.5Q83,36,139,52Q195,68,227,108.5Q259,149,230.5,195Z" fill="#DEDEDE" stroke="none" stroke-width="10" opacity="0.21"></path></g><g transform="translate(588 570)" opacity="0.21"><path d="M266.5,219.5Q229,278,159.5,280.5Q90,283,65.5,222Q41,161,64.5,97.5Q88,34,151.5,50.5Q215,67,259.5,114Q304,161,266.5,219.5Z" fill="#E8E9E9" stroke="none" stroke-width="10" opacity="0.21"></path></g><g transform="translate(610.8533333333334 6.853333333333339)" opacity="0.21"><path d="M251.5,202.5Q211,256,150.5,253Q90,250,58.5,199.5Q27,149,53,88.5Q79,28,142.5,39Q206,50,249,99.5Q292,149,251.5,202.5Z" fill="#FFFFFF" stroke="none" stroke-width="10"></path></g><g transform="translate(33.85333333333334 -83.14666666666666)" opacity="0.21"><path d="M227.5,206.5Q215,264,149,263Q83,262,53,205.5Q23,149,58.5,102Q94,55,145,60.5Q196,66,218,107.5Q240,149,227.5,206.5Z" fill="#E8E9E9" stroke="none" stroke-width="10"></path></g><g transform="translate(637.8533333333334 43.85333333333334)" opacity="0.21"><path d="M239,200Q208,251,150,249Q92,247,52,198Q12,149,50.5,97.5Q89,46,151.5,41Q214,36,242,92.5Q270,149,239,200Z" fill="#DEDEDE" stroke="none" stroke-width="10"></path></g><g transform="translate(431.85333333333335 480.85333333333335)" opacity="0.21"><path d="M224,195Q202,241,150.5,238Q99,235,53,192Q7,149,54.5,108.5Q102,68,154,58.5Q206,49,226,99Q246,149,224,195Z" fill="#E8E9E9" stroke="none" stroke-width="10"></path></g><g transform="translate(141.85333333333335 -75.14666666666666)" opacity="0.21"><path d="M247,203.5Q212,258,147.5,260Q83,262,60.5,205.5Q38,149,59.5,90.5Q81,32,140,47Q199,62,240.5,105.5Q282,149,247,203.5Z" fill="#FFFFFF" stroke="none" stroke-width="10"></path></g></svg>