<svg class="border shadow-md" viewBox="0 0 743.6 743.6" xmlns="http://www.w3.org/2000/svg" preserveAspectRatio="none" style="width: 743.6px; height: 743.6px;"><rect class="bg" id="bg" x="0" y="0" width="743.6" height="743.6" fill="#BE6F45"></rect><circle cx="629" cy="562" r="136" stroke="none" fill="#EF790B" stroke-width="10" opacity="0.3"></circle><circle cx="141" cy="267" r="122" stroke="none" fill="#EE9464" stroke-width="10" opacity="0.3"></circle><circle cx="608" cy="220" r="140" stroke="none" fill="#EF790B" stroke-width="10" opacity="0.3"></circle><circle cx="265.475" cy="148.475" r="92.95" stroke="none" fill="#FFFFFF" stroke-width="10" opacity="0.3"></circle><circle cx="575.475" cy="325.475" r="92.95" stroke="none" fill="#EF790B" stroke-width="10" opacity="0.3"></circle><circle cx="639" cy="574" r="172" stroke="none" fill="#EE9464" stroke-width="10" opacity="0.3"></circle><circle cx="386.5" cy="248.5" r="151" stroke="none" fill="#EF790B" stroke-width="10" opacity="0.3"></circle><circle cx="584.475" cy="103.475" r="92.95" stroke="none" fill="#FFFFFF" stroke-width="10" opacity="0.3"></circle><circle cx="572.475" cy="612.475" r="92.95" stroke="none" fill="#EF790B" stroke-width="10" opacity="0.3"></circle><circle cx="365.475" cy="746.475" r="92.95" stroke="none" fill="#EE9464" stroke-width="10" opacity="0.3"></circle><circle cx="585.475" cy="238.475" r="92.95" stroke="none" fill="#EF790B" stroke-width="10" opacity="0.3"></circle><circle cx="291" cy="777" r="96" stroke="none" fill="#FFFFFF" stroke-width="10" opacity="0.3"></circle><circle cx="470.475" cy="619.475" r="92.95" stroke="none" fill="#EF790B" stroke-width="10" opacity="0.3"></circle><circle cx="251.475" cy="633.475" r="92.95" stroke="none" fill="#EE9464" stroke-width="10" opacity="0.3"></circle><circle cx="201" cy="249" r="132" stroke="none" fill="#EF790B" stroke-width="10" opacity="0.3"></circle><circle cx="195.475" cy="242.475" r="92.95" stroke="none" fill="#FFFFFF" stroke-width="10" opacity="0.3"></circle><circle cx="79.475" cy="710.475" r="92.95" stroke="none" fill="#EF790B" stroke-width="10" opacity="0.3"></circle><circle cx="414.475" cy="378.475" r="92.95" stroke="none" fill="#EE9464" stroke-width="10" opacity="0.3"></circle><circle cx="182" cy="499" r="130" stroke="none" fill="#EF790B" stroke-width="10" opacity="0.3"></circle><circle cx="439.475" cy="543.475" r="92.95" stroke="none" fill="#FFFFFF" stroke-width="10" opacity="0.3"></circle><circle cx="418.475" cy="501.475" r="92.95" stroke="none" fill="#EF790B" stroke-width="10" opacity="0.3"></circle><circle cx="88.475" cy="555.475" r="92.95" stroke="none" fill="#EE9464" stroke-width="10" opacity="0.3"></circle><circle cx="186" cy="274" r="98" stroke="none" fill="#EF790B" stroke-width="10" opacity="0.3"></circle><circle cx="178.475" cy="301.475" r="92.95" stroke="none" fill="#FFFFFF" stroke-width="10" opacity="0.3"></circle><circle cx="516.475" cy="176.475" r="92.95" stroke="none" fill="#EF790B" stroke-width="10" opacity="0.3"></circle><circle cx="610.5" cy="241.5" r="97" stroke="none" fill="#EE9464" stroke-width="10" opacity="0.3"></circle><circle cx="316.5" cy="88.5" r="129" stroke="none" fill="#EF790B" stroke-width="10" opacity="0.3"></circle><circle cx="187.475" cy="207.475" r="92.95" stroke="none" fill="#FFFFFF" stroke-width="10" opacity="0.3"></circle><circle cx="475.5" cy="83.5" r="149" stroke="none" fill="#EF790B" stroke-width="10" opacity="0.3"></circle><circle cx="544.475" cy="183.475" r="92.95" stroke="none" fill="#EE9464" stroke-width="10" opacity="0.3"></circle><circle cx="240.5" cy="161.5" r="127" stroke="none" fill="#EF790B" stroke-width="10" opacity="0.3"></circle><circle cx="282.475" cy="106.475" r="92.95" stroke="none" fill="#FFFFFF" stroke-width="10" opacity="0.3"></circle><circle cx="163.475" cy="515.475" r="92.95" stroke="none" fill="#EF790B" stroke-width="10" opacity="0.3"></circle><circle cx="189.5" cy="192.5" r="151" stroke="none" fill="#EE9464" stroke-width="10" opacity="0.3"></circle><circle cx="307" cy="156" r="106" stroke="none" fill="#EF790B" stroke-width="10" opacity="0.3"></circle><circle cx="299.5" cy="101.5" r="167" stroke="none" fill="#FFFFFF" stroke-width="10" opacity="0.3"></circle><circle cx="308.475" cy="707.475" r="92.95" stroke="none" fill="#EF790B" stroke-width="10" opacity="0.3"></circle><circle cx="764.475" cy="516.475" r="92.95" stroke="none" fill="#EE9464" stroke-width="10" opacity="0.3"></circle><circle cx="665.475" cy="470.475" r="92.95" stroke="none" fill="#EF790B" stroke-width="10" opacity="0.3"></circle><circle cx="143.475" cy="746.475" r="92.95" stroke="none" fill="#FFFFFF" stroke-width="10" opacity="0.3"></circle><circle cx="567.475" cy="588.475" r="92.95" stroke="none" fill="#EF790B" stroke-width="10" opacity="0.3"></circle><circle cx="511" cy="392" r="136" stroke="none" fill="#EE9464" stroke-width="10" opacity="0.3"></circle><circle cx="235.5" cy="91.5" r="135" stroke="none" fill="#EF790B" stroke-width="10" opacity="0.3"></circle><circle cx="653.475" cy="161.475" r="92.95" stroke="none" fill="#FFFFFF" stroke-width="10" opacity="0.3"></circle><circle cx="614.475" cy="120.475" r="92.95" stroke="none" fill="#EF790B" stroke-width="10" opacity="0.3"></circle><circle cx="103.475" cy="741.475" r="92.95" stroke="none" fill="#EE9464" stroke-width="10" opacity="0.3"></circle><circle cx="742.475" cy="195.475" r="92.95" stroke="none" fill="#EF790B" stroke-width="10" opacity="0.3"></circle><circle cx="327" cy="395" r="102" stroke="none" fill="#FFFFFF" stroke-width="10" opacity="0.3"></circle><circle cx="341.5" cy="755.5" r="117" stroke="none" fill="#EF790B" stroke-width="10" opacity="0.3"></circle><circle cx="234.475" cy="786.475" r="92.95" stroke="none" fill="#EE9464" stroke-width="10" opacity="0.3"></circle><circle cx="773.475" cy="337.475" r="92.95" stroke="none" fill="#EF790B" stroke-width="10" opacity="0.3"></circle><circle cx="754.5" cy="654.5" r="93" stroke="none" fill="#FFFFFF" stroke-width="10" opacity="0.3"></circle><circle cx="657.5" cy="453.5" r="183" stroke="none" fill="#EF790B" stroke-width="10" opacity="0.3"></circle><circle cx="268.5" cy="214.5" r="155" stroke="none" fill="#EE9464" stroke-width="10" opacity="0.3"></circle><circle cx="660.475" cy="56.475" r="92.95" stroke="none" fill="#EF790B" stroke-width="10" opacity="0.3"></circle><circle cx="613.5" cy="102.5" r="107" stroke="none" fill="#FFFFFF" stroke-width="10" opacity="0.3"></circle><circle cx="645.475" cy="328.475" r="92.95" stroke="none" fill="#EF790B" stroke-width="10" opacity="0.3"></circle><circle cx="328.5" cy="413.5" r="123" stroke="none" fill="#EE9464" stroke-width="10" opacity="0.3"></circle><circle cx="566" cy="282" r="158" stroke="none" fill="#EF790B" stroke-width="10" opacity="0.3"></circle><circle cx="369.475" cy="89.475" r="92.95" stroke="none" fill="#FFFFFF" stroke-width="10" opacity="0.3"></circle><circle cx="64.475" cy="332.475" r="92.95" stroke="none" fill="#EF790B" stroke-width="10" opacity="0.3"></circle><circle cx="237.5" cy="404.5" r="149" stroke="none" fill="#EE9464" stroke-width="10" opacity="0.3"></circle><circle cx="316.5" cy="238.5" r="169" stroke="none" fill="#EF790B" stroke-width="10" opacity="0.3"></circle><circle cx="249.475" cy="155.475" r="92.95" stroke="none" fill="#FFFFFF" stroke-width="10" opacity="0.3"></circle><circle cx="398.475" cy="128.475" r="92.95" stroke="none" fill="#EF790B" stroke-width="10" opacity="0.3"></circle><circle cx="487.5" cy="811.5" r="177" stroke="none" fill="#EE9464" stroke-width="10" opacity="0.3"></circle><circle cx="220.475" cy="686.475" r="92.95" stroke="none" fill="#EF790B" stroke-width="10" opacity="0.3"></circle><circle cx="245" cy="127" r="154" stroke="none" fill="#FFFFFF" stroke-width="10" opacity="0.3"></circle><circle cx="288.5" cy="221.5" r="173" stroke="none" fill="#EF790B" stroke-width="10" opacity="0.3"></circle><circle cx="284.475" cy="584.475" r="92.95" stroke="none" fill="#EE9464" stroke-width="10" opacity="0.3"></circle><circle cx="779.475" cy="634.475" r="92.95" stroke="none" fill="#EF790B" stroke-width="10" opacity="0.3"></circle><circle cx="297.475" cy="533.475" r="92.95" stroke="none" fill="#FFFFFF" stroke-width="10" opacity="0.3"></circle><circle cx="436.475" cy="592.475" r="92.95" stroke="none" fill="#EF790B" stroke-width="10" opacity="0.3"></circle><circle cx="593" cy="377" r="170" stroke="none" fill="#EE9464" stroke-width="10" opacity="0.3"></circle><circle cx="669" cy="716" r="184" stroke="none" fill="#EF790B" stroke-width="10" opacity="0.3"></circle><circle cx="554.5" cy="452.5" r="115" stroke="none" fill="#FFFFFF" stroke-width="10" opacity="0.3"></circle><circle cx="422.475" cy="277.475" r="92.95" stroke="none" fill="#EF790B" stroke-width="10" opacity="0.3"></circle><circle cx="662.475" cy="347.475" r="92.95" stroke="none" fill="#EE9464" stroke-width="10" opacity="0.3"></circle><circle cx="655.475" cy="709.475" r="92.95" stroke="none" fill="#EF790B" stroke-width="10" opacity="0.3"></circle><circle cx="215.5" cy="677.5" r="181" stroke="none" fill="#FFFFFF" stroke-width="10" opacity="0.3"></circle><circle cx="508.475" cy="154.475" r="92.95" stroke="none" fill="#EF790B" stroke-width="10" opacity="0.3"></circle><circle cx="95.475" cy="527.475" r="92.95" stroke="none" fill="#EE9464" stroke-width="10" opacity="0.3"></circle><circle cx="612.475" cy="120.475" r="92.95" stroke="none" fill="#EF790B" stroke-width="10" opacity="0.3"></circle><circle cx="202.475" cy="663.475" r="92.95" stroke="none" fill="#FFFFFF" stroke-width="10" opacity="0.3"></circle><circle cx="152" cy="169" r="116" stroke="none" fill="#EF790B" stroke-width="10" opacity="0.3"></circle><circle cx="65.5" cy="399.5" r="107" stroke="none" fill="#EE9464" stroke-width="10" opacity="0.3"></circle></svg>